<mxfile host="app.diagrams.net" modified="2024-05-27T07:22:22.170Z" agent="Mozilla/5.0 (Windows NT 10.0; Win64; x64) AppleWebKit/537.36 (KHTML, like Gecko) Chrome/125.0.0.0 Safari/537.36" etag="T91YPktxldb_Nje16blf" version="24.2.8" type="device">
  <diagram name="Page-1" id="_Q7HczmBHee25IGup5Kv">
    <mxGraphModel dx="1434" dy="772" grid="1" gridSize="10" guides="1" tooltips="1" connect="1" arrows="1" fold="1" page="1" pageScale="1" pageWidth="827" pageHeight="1169" math="0" shadow="0">
      <root>
        <mxCell id="0" />
        <mxCell id="1" parent="0" />
        <mxCell id="xvOg_0rvFpRXNZF4D0c1-1" value="" style="rounded=0;whiteSpace=wrap;html=1;" vertex="1" parent="1">
          <mxGeometry x="120" y="40" width="600" height="680" as="geometry" />
        </mxCell>
        <mxCell id="xvOg_0rvFpRXNZF4D0c1-2" value="" style="rounded=0;whiteSpace=wrap;html=1;" vertex="1" parent="1">
          <mxGeometry x="184" y="290" width="230" height="250" as="geometry" />
        </mxCell>
        <mxCell id="xvOg_0rvFpRXNZF4D0c1-3" value="title" style="rounded=0;whiteSpace=wrap;html=1;fontSize=26;" vertex="1" parent="1">
          <mxGeometry x="240" y="180" width="400" height="60" as="geometry" />
        </mxCell>
        <mxCell id="xvOg_0rvFpRXNZF4D0c1-4" value="" style="endArrow=none;html=1;rounded=0;entryX=1;entryY=0;entryDx=0;entryDy=0;" edge="1" parent="1" target="xvOg_0rvFpRXNZF4D0c1-2">
          <mxGeometry width="50" height="50" relative="1" as="geometry">
            <mxPoint x="184" y="540" as="sourcePoint" />
            <mxPoint x="234" y="490" as="targetPoint" />
          </mxGeometry>
        </mxCell>
        <mxCell id="xvOg_0rvFpRXNZF4D0c1-5" value="" style="rounded=0;whiteSpace=wrap;html=1;" vertex="1" parent="1">
          <mxGeometry x="184" y="570" width="236" height="130" as="geometry" />
        </mxCell>
        <mxCell id="xvOg_0rvFpRXNZF4D0c1-7" value="" style="curved=1;endArrow=classic;html=1;rounded=0;entryX=1;entryY=0;entryDx=0;entryDy=0;exitX=0;exitY=1;exitDx=0;exitDy=0;" edge="1" parent="1" source="xvOg_0rvFpRXNZF4D0c1-5" target="xvOg_0rvFpRXNZF4D0c1-5">
          <mxGeometry width="50" height="50" relative="1" as="geometry">
            <mxPoint x="290" y="670" as="sourcePoint" />
            <mxPoint x="340" y="620" as="targetPoint" />
            <Array as="points">
              <mxPoint x="340" y="670" />
              <mxPoint x="230" y="620" />
            </Array>
          </mxGeometry>
        </mxCell>
        <mxCell id="xvOg_0rvFpRXNZF4D0c1-8" value="" style="rounded=0;whiteSpace=wrap;html=1;" vertex="1" parent="1">
          <mxGeometry x="480" y="290" width="180" height="310" as="geometry" />
        </mxCell>
        <mxCell id="xvOg_0rvFpRXNZF4D0c1-9" value="" style="curved=1;endArrow=classic;html=1;rounded=0;entryX=1;entryY=0;entryDx=0;entryDy=0;exitX=0;exitY=1;exitDx=0;exitDy=0;" edge="1" parent="1" source="xvOg_0rvFpRXNZF4D0c1-8" target="xvOg_0rvFpRXNZF4D0c1-8">
          <mxGeometry width="50" height="50" relative="1" as="geometry">
            <mxPoint x="530" y="430" as="sourcePoint" />
            <mxPoint x="580" y="380" as="targetPoint" />
            <Array as="points">
              <mxPoint x="580" y="430" />
              <mxPoint x="530" y="380" />
            </Array>
          </mxGeometry>
        </mxCell>
        <mxCell id="xvOg_0rvFpRXNZF4D0c1-10" value="winkelwagen" style="rounded=0;whiteSpace=wrap;html=1;fontSize=22;" vertex="1" parent="1">
          <mxGeometry x="480" y="520" width="180" height="80" as="geometry" />
        </mxCell>
        <mxCell id="xvOg_0rvFpRXNZF4D0c1-11" value="prijs" style="rounded=0;whiteSpace=wrap;html=1;fontSize=24;" vertex="1" parent="1">
          <mxGeometry x="480" y="290" width="180" height="80" as="geometry" />
        </mxCell>
        <mxCell id="xvOg_0rvFpRXNZF4D0c1-12" value="beschrijving" style="rounded=0;whiteSpace=wrap;html=1;fontSize=22;" vertex="1" parent="1">
          <mxGeometry x="184" y="570" width="236" height="130" as="geometry" />
        </mxCell>
        <mxCell id="xvOg_0rvFpRXNZF4D0c1-13" value="" style="endArrow=none;html=1;rounded=0;exitX=0;exitY=0;exitDx=0;exitDy=0;entryX=1;entryY=1;entryDx=0;entryDy=0;" edge="1" parent="1" source="xvOg_0rvFpRXNZF4D0c1-2" target="xvOg_0rvFpRXNZF4D0c1-2">
          <mxGeometry width="50" height="50" relative="1" as="geometry">
            <mxPoint x="390" y="420" as="sourcePoint" />
            <mxPoint x="440" y="370" as="targetPoint" />
          </mxGeometry>
        </mxCell>
        <mxCell id="xvOg_0rvFpRXNZF4D0c1-14" value="vooraad" style="rounded=0;whiteSpace=wrap;html=1;fontSize=20;" vertex="1" parent="1">
          <mxGeometry x="480" y="370" width="180" height="150" as="geometry" />
        </mxCell>
        <mxCell id="xvOg_0rvFpRXNZF4D0c1-15" value="" style="rounded=0;whiteSpace=wrap;html=1;" vertex="1" parent="1">
          <mxGeometry x="120" y="40" width="600" height="100" as="geometry" />
        </mxCell>
        <mxCell id="xvOg_0rvFpRXNZF4D0c1-16" value="" style="rounded=0;whiteSpace=wrap;html=1;" vertex="1" parent="1">
          <mxGeometry x="140" y="60" width="120" height="60" as="geometry" />
        </mxCell>
        <mxCell id="xvOg_0rvFpRXNZF4D0c1-17" value="" style="endArrow=none;html=1;rounded=0;entryX=1;entryY=0;entryDx=0;entryDy=0;exitX=0;exitY=1;exitDx=0;exitDy=0;" edge="1" parent="1" source="xvOg_0rvFpRXNZF4D0c1-16" target="xvOg_0rvFpRXNZF4D0c1-16">
          <mxGeometry width="50" height="50" relative="1" as="geometry">
            <mxPoint x="390" y="420" as="sourcePoint" />
            <mxPoint x="440" y="370" as="targetPoint" />
          </mxGeometry>
        </mxCell>
        <mxCell id="xvOg_0rvFpRXNZF4D0c1-18" value="" style="endArrow=none;html=1;rounded=0;entryX=1;entryY=1;entryDx=0;entryDy=0;exitX=0;exitY=0;exitDx=0;exitDy=0;" edge="1" parent="1" source="xvOg_0rvFpRXNZF4D0c1-16" target="xvOg_0rvFpRXNZF4D0c1-16">
          <mxGeometry width="50" height="50" relative="1" as="geometry">
            <mxPoint x="390" y="420" as="sourcePoint" />
            <mxPoint x="440" y="370" as="targetPoint" />
          </mxGeometry>
        </mxCell>
        <mxCell id="xvOg_0rvFpRXNZF4D0c1-19" value="nav" style="rounded=0;whiteSpace=wrap;html=1;fontSize=20;" vertex="1" parent="1">
          <mxGeometry x="310" y="60" width="330" height="60" as="geometry" />
        </mxCell>
        <mxCell id="xvOg_0rvFpRXNZF4D0c1-20" value="footer" style="rounded=0;whiteSpace=wrap;html=1;fontSize=19;" vertex="1" parent="1">
          <mxGeometry x="120" y="720" width="600" height="60" as="geometry" />
        </mxCell>
      </root>
    </mxGraphModel>
  </diagram>
</mxfile>
